# Blender 4.0.2
# www.blender.org
mtllib labirint.mtl
o Plane
v -65.184525 0.000000 65.184525
v 65.184517 0.000000 65.184525
v -65.184525 0.000000 -65.184525
v 65.184517 0.000000 -65.184525
v -65.184525 0.000000 -53.332790
v -65.184525 0.000000 -41.481056
v -65.184525 0.000000 -29.629326
v -65.184525 0.000000 -17.777594
v -65.184525 0.000000 -5.925863
v -65.184525 0.000000 5.925868
v -65.184525 0.000000 17.777599
v -65.184525 0.000000 29.629326
v -65.184525 0.000000 41.481056
v -65.184525 0.000000 53.332790
v -53.332794 0.000000 65.184525
v -41.481056 0.000000 65.184525
v -29.629332 0.000000 65.184525
v -17.777599 0.000000 65.184525
v -5.925867 0.000000 65.184525
v 5.925863 0.000000 65.184525
v 17.777594 0.000000 65.184525
v 29.629322 0.000000 65.184525
v 41.481056 0.000000 65.184525
v 53.332790 0.000000 65.184525
v 65.184517 0.000000 53.332790
v 65.184517 0.000000 41.481056
v 65.184517 0.000000 29.629326
v 65.184517 0.000000 17.777597
v 65.184517 0.000000 5.925865
v 65.184517 0.000000 -5.925866
v 65.184517 0.000000 -17.777597
v 65.184517 0.000000 -29.629326
v 65.184517 0.000000 -41.481056
v 65.184517 0.000000 -53.332790
v 53.332790 0.000000 -65.184525
v 41.481056 0.000000 -65.184525
v 29.629320 0.000000 -65.184525
v 17.777592 0.000000 -65.184525
v 5.925860 0.000000 -65.184525
v -5.925870 0.000000 -65.184525
v -17.777601 0.000000 -65.184525
v -29.629333 0.000000 -65.184525
v -41.481056 0.000000 -65.184525
v -53.332794 0.000000 -65.184525
v -53.332794 0.000000 53.332790
v -53.332794 0.000000 41.481056
v -53.332794 0.000000 29.629326
v -53.332794 0.000000 17.777597
v -53.332794 0.000000 5.925865
v -53.332794 0.000000 -5.925866
v -53.332794 0.000000 -17.777597
v -53.332794 0.000000 -29.629326
v -53.332794 0.000000 -41.481056
v -53.332794 0.000000 -53.332790
v -41.481056 0.000000 53.332790
v -41.481056 0.000000 41.481056
v -41.481056 0.000000 29.629326
v -41.481056 0.000000 17.777597
v -41.481056 0.000000 5.925865
v -41.481056 0.000000 -5.925866
v -41.481056 0.000000 -17.777597
v -41.481056 0.000000 -29.629326
v -41.481056 0.000000 -41.481056
v -41.481056 0.000000 -53.332790
v -29.629332 0.000000 53.332790
v -29.629332 0.000000 41.481056
v -29.629332 0.000000 29.629326
v -29.629332 0.000000 17.777597
v -29.629332 0.000000 5.925865
v -29.629332 0.000000 -5.925866
v -29.629332 0.000000 -17.777597
v -29.629332 0.000000 -29.629326
v -29.629332 0.000000 -41.481056
v -29.629332 0.000000 -53.332790
v -17.777599 0.000000 53.332790
v -17.777599 0.000000 41.481056
v -17.777599 0.000000 29.629326
v -17.777599 0.000000 17.777597
v -17.777599 0.000000 5.925865
v -17.777599 0.000000 -5.925866
v -17.777599 0.000000 -17.777597
v -17.777599 0.000000 -29.629326
v -17.777599 0.000000 -41.481056
v -17.777599 0.000000 -53.332790
v -5.925868 0.000000 53.332790
v -5.925868 0.000000 41.481056
v -5.925868 0.000000 29.629326
v -5.925868 0.000000 17.777597
v -5.925868 0.000000 5.925865
v -5.925869 0.000000 -5.925866
v -5.925869 0.000000 -17.777597
v -5.925869 0.000000 -29.629326
v -5.925869 0.000000 -41.481056
v -5.925870 0.000000 -53.332790
v 5.925863 0.000000 53.332790
v 5.925863 0.000000 41.481056
v 5.925863 0.000000 29.629326
v 5.925863 0.000000 17.777597
v 5.925862 0.000000 5.925865
v 5.925862 0.000000 -5.925866
v 5.925862 0.000000 -17.777597
v 5.925862 0.000000 -29.629326
v 5.925861 0.000000 -41.481056
v 5.925860 0.000000 -53.332790
v 17.777594 0.000000 53.332790
v 17.777594 0.000000 41.481056
v 17.777594 0.000000 29.629326
v 17.777594 0.000000 17.777597
v 17.777594 0.000000 5.925865
v 17.777594 0.000000 -5.925866
v 17.777594 0.000000 -17.777597
v 17.777594 0.000000 -29.629326
v 17.777594 0.000000 -41.481056
v 17.777592 0.000000 -53.332790
v 29.629322 0.000000 53.332790
v 29.629322 0.000000 41.481056
v 29.629322 0.000000 29.629326
v 29.629322 0.000000 17.777597
v 29.629322 0.000000 5.925865
v 29.629322 0.000000 -5.925866
v 29.629322 0.000000 -17.777597
v 29.629322 0.000000 -29.629326
v 29.629322 0.000000 -41.481056
v 29.629320 0.000000 -53.332790
v 41.481056 0.000000 53.332790
v 41.481056 0.000000 41.481056
v 41.481056 0.000000 29.629326
v 41.481056 0.000000 17.777597
v 41.481056 0.000000 5.925865
v 41.481056 0.000000 -5.925866
v 41.481056 0.000000 -17.777597
v 41.481056 0.000000 -29.629326
v 41.481056 0.000000 -41.481056
v 41.481056 0.000000 -53.332790
v 53.332790 0.000000 53.332790
v 53.332790 0.000000 41.481056
v 53.332790 0.000000 29.629326
v 53.332790 0.000000 17.777597
v 53.332790 0.000000 5.925865
v 53.332790 0.000000 -5.925866
v 53.332790 0.000000 -17.777597
v 53.332790 0.000000 -29.629326
v 53.332790 0.000000 -41.481056
v 53.332790 0.000000 -53.332790
v -65.184525 18.321035 53.332790
v -65.184525 18.321035 65.184525
v 53.332790 18.321035 65.184525
v 65.184517 18.321035 65.184525
v 65.184517 18.321035 -53.332790
v 65.184517 18.321035 -65.184525
v -53.332794 18.321035 -65.184525
v -65.184525 18.321035 -65.184525
v -65.184525 18.321035 -53.332790
v -65.184525 18.321035 -41.481056
v -65.184525 18.321035 -29.629326
v -65.184525 18.321035 -17.777594
v -65.184525 18.321035 -5.925863
v -65.184525 18.321035 5.925868
v -65.184525 18.321035 17.777599
v -65.184525 18.321035 29.629326
v -65.184525 18.321035 41.481056
v -53.332794 18.321035 65.184525
v -41.481056 18.321035 65.184525
v -29.629332 18.321035 65.184525
v -17.777599 18.321035 65.184525
v -5.925867 18.321035 65.184525
v 5.925863 18.321035 65.184525
v 17.777594 18.321035 65.184525
v 29.629322 18.321035 65.184525
v 41.481056 18.321035 65.184525
v 65.184517 18.321035 53.332790
v 65.184517 18.321035 41.481056
v 65.184517 18.321035 29.629326
v 65.184517 18.321035 17.777597
v 65.184517 18.321035 5.925865
v 65.184517 18.321035 -5.925866
v 65.184517 18.321035 -17.777597
v 65.184517 18.321035 -29.629326
v 65.184517 18.321035 -41.481056
v 53.332790 18.321035 -65.184525
v 41.481056 18.321035 -65.184525
v 29.629320 18.321035 -65.184525
v 17.777592 18.321035 -65.184525
v 5.925860 18.321035 -65.184525
v -5.925870 18.321035 -65.184525
v -17.777601 18.321035 -65.184525
v -29.629333 18.321035 -65.184525
v -41.481056 18.321035 -65.184525
v -53.332794 18.321035 -53.332790
v -53.332794 18.321035 53.332790
v -53.332794 18.321035 41.481056
v -53.332794 18.321035 29.629326
v -53.332794 18.321035 17.777597
v -53.332794 18.321035 5.925865
v -53.332794 18.321035 -5.925866
v -53.332794 18.321035 -17.777597
v -53.332794 18.321035 -29.629326
v -53.332794 18.321035 -41.481056
v -41.481056 18.321035 -53.332790
v -41.481056 18.321035 53.332790
v -41.481056 18.321035 41.481056
v -41.481056 18.321035 29.629326
v -41.481056 18.321035 17.777597
v -41.481056 18.321035 5.925865
v -41.481056 18.321035 -5.925866
v -41.481056 18.321035 -17.777597
v -41.481056 18.321035 -29.629326
v -41.481056 18.321035 -41.481056
v -29.629332 18.321035 -53.332790
v -29.629332 18.321035 53.332790
v -29.629332 18.321035 41.481056
v -29.629332 18.321035 29.629326
v -29.629332 18.321035 17.777597
v -29.629332 18.321035 5.925865
v -29.629332 18.321035 -5.925866
v -29.629332 18.321035 -17.777597
v -29.629332 18.321035 -29.629326
v -29.629332 18.321035 -41.481056
v -17.777599 18.321035 -53.332790
v -17.777599 18.321035 53.332790
v -17.777599 18.321035 41.481056
v -17.777599 18.321035 29.629326
v -17.777599 18.321035 17.777597
v -17.777599 18.321035 5.925865
v -17.777599 18.321035 -5.925866
v -17.777599 18.321035 -17.777597
v -17.777599 18.321035 -29.629326
v -17.777599 18.321035 -41.481056
v -5.925870 18.321035 -53.332790
v -5.925868 18.321035 53.332790
v -5.925868 18.321035 41.481056
v -5.925868 18.321035 29.629326
v -5.925868 18.321035 17.777597
v -5.925868 18.321035 5.925865
v -5.925869 18.321035 -5.925866
v -5.925869 18.321035 -17.777597
v -5.925869 18.321035 -29.629326
v -5.925869 18.321035 -41.481056
v 5.925860 18.321035 -53.332790
v 5.925863 18.321035 53.332790
v 5.925863 18.321035 41.481056
v 5.925863 18.321035 29.629326
v 5.925863 18.321035 17.777597
v 5.925862 18.321035 5.925865
v 5.925862 18.321035 -5.925866
v 5.925862 18.321035 -17.777597
v 5.925862 18.321035 -29.629326
v 5.925861 18.321035 -41.481056
v 17.777592 18.321035 -53.332790
v 17.777594 18.321035 53.332790
v 17.777594 18.321035 41.481056
v 17.777594 18.321035 29.629326
v 17.777594 18.321035 17.777597
v 17.777594 18.321035 5.925865
v 17.777594 18.321035 -5.925866
v 17.777594 18.321035 -17.777597
v 17.777594 18.321035 -29.629326
v 17.777594 18.321035 -41.481056
v 29.629320 18.321035 -53.332790
v 29.629322 18.321035 53.332790
v 29.629322 18.321035 41.481056
v 29.629322 18.321035 29.629326
v 29.629322 18.321035 17.777597
v 29.629322 18.321035 5.925865
v 29.629322 18.321035 -5.925866
v 29.629322 18.321035 -41.481056
v 41.481056 18.321035 -53.332790
v 41.481056 18.321035 53.332790
v 41.481056 18.321035 41.481056
v 41.481056 18.321035 29.629326
v 41.481056 18.321035 17.777597
v 41.481056 18.321035 5.925865
v 41.481056 18.321035 -5.925866
v 41.481056 18.321035 -17.777597
v 41.481056 18.321035 -29.629326
v 41.481056 18.321035 -41.481056
v 53.332790 18.321035 -53.332790
v 53.332790 18.321035 53.332790
v 53.332790 18.321035 41.481056
v 53.332790 18.321035 29.629326
v 53.332790 18.321035 17.777597
v 53.332790 18.321035 5.925865
v 53.332790 18.321035 -5.925866
v 53.332790 18.321035 -17.777597
v 53.332790 18.321035 -29.629326
v 53.332790 18.321035 -41.481056
vn -1.0000 -0.0000 -0.0000
vn 1.0000 -0.0000 -0.0000
vn -0.0000 -0.0000 1.0000
vn -0.0000 -0.0000 -1.0000
vn -0.0000 1.0000 -0.0000
vt 0.909091 0.545455
vt 0.909091 0.454545
vt 0.090909 0.090909
vt 0.090909 0.181818
vt 0.363636 0.636364
vt 0.454545 0.636364
vt 0.454545 0.727273
vt 0.454545 0.818182
vt 0.909091 0.727273
vt 0.818182 0.727273
vt 0.909091 0.363636
vt 0.454545 0.545455
vt 0.363636 0.545455
vt 0.818182 0.636364
vt 0.909091 0.636364
vt 0.909091 0.272727
vt 0.909091 0.181818
vt 0.000000 0.000000
vt 0.454545 0.454545
vt 0.363636 0.181818
vt 0.454545 0.181818
vt 0.454545 0.272727
vt 0.454545 0.363636
vt 0.454545 0.090909
vt 0.363636 0.090909
vt 0.818182 0.818182
vt 0.818182 0.909091
vt 0.000000 0.818182
vt 0.090909 0.818182
vt 0.090909 0.909091
vt 0.000000 0.909091
vt 0.181818 0.090909
vt 0.181818 0.181818
vt 0.181818 0.272727
vt 0.090909 0.272727
vt 0.181818 0.363636
vt 0.090909 0.363636
vt 0.181818 0.454545
vt 0.090909 0.454545
vt 0.272727 0.909091
vt 0.363636 0.909091
vt 0.090909 0.545455
vt 0.181818 0.545455
vt 0.181818 0.636364
vt 0.090909 0.636364
vt 0.181818 0.727273
vt 0.090909 0.727273
vt 0.909091 0.090909
vt 0.818182 0.090909
vt 0.181818 0.818182
vt 0.181818 0.909091
vt 0.272727 0.090909
vt 0.272727 0.181818
vt 0.272727 0.272727
vt 0.272727 0.363636
vt 0.727273 0.818182
vt 0.272727 0.636364
vt 0.272727 0.727273
vt 0.363636 0.818182
vt 0.272727 0.818182
vt 0.818182 0.454545
vt 0.818182 0.545455
vt 0.363636 0.272727
vt 0.363636 0.363636
vt 0.363636 0.727273
vt 0.272727 0.454545
vt 0.363636 0.454545
vt 0.272727 0.545455
vt 0.818182 0.363636
vt 0.727273 0.545455
vt 0.818182 0.181818
vt 0.818182 0.272727
vt 0.545455 0.090909
vt 0.545455 0.181818
vt 0.545455 0.272727
vt 0.545455 0.363636
vt 0.545455 0.454545
vt 0.545455 0.545455
vt 0.545455 0.636364
vt 0.545455 0.727273
vt 0.545455 0.818182
vt 0.545455 0.909091
vt 0.454545 0.909091
vt 0.727273 0.363636
vt 0.636364 0.090909
vt 0.636364 0.181818
vt 0.636364 0.272727
vt 0.636364 0.363636
vt 0.636364 0.545455
vt 0.636364 0.636364
vt 0.727273 0.272727
vt 0.636364 0.818182
vt 0.636364 0.909091
vt 0.727273 0.090909
vt 0.727273 0.181818
vt 0.636364 0.454545
vt 0.727273 0.454545
vt 0.727273 0.636364
vt 0.727273 0.727273
vt 0.636364 0.727273
vt 0.727273 0.909091
vt 0.909091 0.818182
vt 0.909091 0.909091
vt 1.000000 0.090909
vt 1.000000 0.181818
vt 1.000000 0.909091
vt 1.000000 1.000000
vt 0.909091 1.000000
vt 0.090909 1.000000
vt 0.000000 1.000000
vt 0.181818 1.000000
vt 0.272727 1.000000
vt 0.363636 1.000000
vt 0.454545 1.000000
vt 0.545455 1.000000
vt 0.636364 1.000000
vt 0.727273 1.000000
vt 0.818182 1.000000
vt 0.090909 0.000000
vt 0.000000 0.090909
vt 0.000000 0.181818
vt 0.000000 0.272727
vt 0.000000 0.363636
vt 0.000000 0.454545
vt 0.000000 0.545455
vt 0.000000 0.636364
vt 0.000000 0.727273
vt 0.181818 0.000000
vt 0.272727 0.000000
vt 0.363636 0.000000
vt 0.454545 0.000000
vt 0.545455 0.000000
vt 0.636364 0.000000
vt 0.727273 0.000000
vt 0.818182 0.000000
vt 0.909091 0.000000
vt 1.000000 0.000000
vt 1.000000 0.272727
vt 1.000000 0.363636
vt 1.000000 0.454545
vt 1.000000 0.545455
vt 1.000000 0.636364
vt 1.000000 0.727273
vt 1.000000 0.818182
s 0
f 140/1/1 139/2/1 282/2/1 283/1/1
f 45/3/2 46/4/2 191/4/2 190/3/2
f 81/5/3 91/6/3 236/6/3 226/5/3
f 92/7/2 93/8/2 238/8/2 237/7/2
f 142/9/4 132/10/4 275/10/4 285/9/4
f 139/2/1 138/11/1 281/11/1 282/2/1
f 90/12/4 80/13/4 225/13/4 235/12/4
f 131/14/3 141/15/3 284/15/3 274/14/3
f 138/11/1 137/16/1 280/16/1 281/11/1
f 137/16/1 136/17/1 279/17/1 280/16/1
f 43/18/4 44/18/4 151/18/4 188/18/4
f 89/19/2 90/12/2 235/12/2 234/19/2
f 42/18/4 43/18/4 188/18/4 187/18/4
f 41/18/4 42/18/4 187/18/4 186/18/4
f 76/20/3 86/21/3 231/21/3 221/20/3
f 87/22/2 88/23/2 233/23/2 232/22/2
f 40/18/4 41/18/4 186/18/4 185/18/4
f 85/24/4 75/25/4 220/25/4 230/24/4
f 86/21/2 87/22/2 232/22/2 231/21/2
f 133/26/2 134/27/2 267/27/2 276/26/2
f 6/28/5 53/29/5 54/30/5 5/31/5
f 39/18/4 40/18/4 185/18/4 184/18/4
f 45/3/5 55/32/5 56/33/5 46/4/5
f 46/4/5 56/33/5 57/34/5 47/35/5
f 47/35/5 57/34/5 58/36/5 48/37/5
f 48/37/5 58/36/5 59/38/5 49/39/5
f 74/40/3 84/41/3 219/41/3 209/40/3
f 50/42/5 60/43/5 61/44/5 51/45/5
f 51/45/5 61/44/5 62/46/5 52/47/5
f 135/48/4 125/49/4 268/49/4 278/48/4
f 53/29/5 63/50/5 64/51/5 54/30/5
f 38/18/4 39/18/4 184/18/4 183/18/4
f 55/32/5 65/52/5 66/53/5 56/33/5
f 132/10/1 131/14/1 274/14/1 275/10/1
f 57/34/5 67/54/5 68/55/5 58/36/5
f 37/18/4 38/18/4 183/18/4 182/18/4
f 123/56/3 133/26/3 276/26/3 266/56/3
f 36/18/4 37/18/4 182/18/4 181/18/4
f 61/44/5 71/57/5 72/58/5 62/46/5
f 84/41/1 83/59/1 228/59/1 219/41/1
f 63/50/5 73/60/5 74/40/5 64/51/5
f 129/61/2 130/62/2 273/62/2 272/61/2
f 65/52/5 75/25/5 76/20/5 66/53/5
f 35/18/4 36/18/4 181/18/4 180/18/4
f 67/54/5 77/63/5 78/64/5 68/55/5
f 83/59/1 82/65/1 227/65/1 228/59/1
f 69/66/5 79/67/5 80/13/5 70/68/5
f 70/68/5 80/13/5 81/5/5 71/57/5
f 71/57/5 81/5/5 82/65/5 72/58/5
f 72/58/5 82/65/5 83/59/5 73/60/5
f 73/60/5 83/59/5 84/41/5 74/40/5
f 128/69/2 129/61/2 272/61/2 271/69/2
f 75/25/5 85/24/5 86/21/5 76/20/5
f 4/18/4 35/18/4 180/18/4 150/18/4
f 79/67/4 69/66/4 214/66/4 224/67/4
f 82/65/1 81/5/1 226/5/1 227/65/1
f 130/62/4 120/70/4 265/70/4 273/62/4
f 80/13/5 90/12/5 91/6/5 81/5/5
f 33/18/2 34/18/2 149/18/2 179/18/2
f 68/55/3 78/64/3 223/64/3 213/55/3
f 126/71/2 127/72/2 270/72/2 269/71/2
f 32/18/2 33/18/2 179/18/2 178/18/2
f 85/24/5 95/73/5 96/74/5 86/21/5
f 86/21/5 96/74/5 97/75/5 87/22/5
f 87/22/5 97/75/5 98/76/5 88/23/5
f 77/63/4 67/54/4 212/54/4 222/63/4
f 89/19/5 99/77/5 100/78/5 90/12/5
f 90/12/5 100/78/5 101/79/5 91/6/5
f 80/13/1 79/67/1 224/67/1 225/13/1
f 92/7/5 102/80/5 103/81/5 93/8/5
f 93/8/5 103/81/5 104/82/5 94/83/5
f 118/84/3 128/69/3 271/69/3 263/84/3
f 95/73/5 105/85/5 106/86/5 96/74/5
f 125/49/2 126/71/2 269/71/2 268/49/2
f 97/75/5 107/87/5 108/88/5 98/76/5
f 31/18/2 32/18/2 178/18/2 177/18/2
f 66/53/3 76/20/3 221/20/3 211/53/3
f 100/78/5 110/89/5 111/90/5 101/79/5
f 127/72/4 117/91/4 262/91/4 270/72/4
f 30/18/2 31/18/2 177/18/2 176/18/2
f 103/81/5 113/92/5 114/93/5 104/82/5
f 75/25/4 65/52/4 210/52/4 220/25/4
f 105/85/5 115/94/5 116/95/5 106/86/5
f 78/64/1 77/63/1 222/63/1 223/64/1
f 107/87/5 117/91/5 118/84/5 108/88/5
f 29/18/2 30/18/2 176/18/2 175/18/2
f 109/96/5 119/97/5 120/70/5 110/89/5
f 110/89/5 120/70/5 121/98/5 111/90/5
f 111/90/5 121/98/5 122/99/5 112/100/5
f 112/100/5 122/99/5 123/56/5 113/92/5
f 113/92/5 123/56/5 124/101/5 114/93/5
f 64/51/3 74/40/3 209/40/3 199/51/3
f 124/101/1 123/56/1 266/56/1 259/101/1
f 28/18/2 29/18/2 175/18/2 174/18/2
f 117/91/5 127/72/5 128/69/5 118/84/5
f 73/60/4 63/50/4 208/50/4 218/60/4
f 114/93/3 124/101/3 259/101/3 249/93/3
f 120/70/5 130/62/5 131/14/5 121/98/5
f 121/98/5 131/14/5 132/10/5 122/99/5
f 122/99/5 132/10/5 133/26/5 123/56/5
f 27/18/2 28/18/2 174/18/2 173/18/2
f 62/46/3 72/58/3 217/58/3 207/46/3
f 125/49/5 135/48/5 136/17/5 126/71/5
f 126/71/5 136/17/5 137/16/5 127/72/5
f 127/72/5 137/16/5 138/11/5 128/69/5
f 128/69/5 138/11/5 139/2/5 129/61/5
f 129/61/5 139/2/5 140/1/5 130/62/5
f 130/62/5 140/1/5 141/15/5 131/14/5
f 26/18/2 27/18/2 173/18/2 172/18/2
f 132/10/5 142/9/5 143/102/5 133/26/5
f 133/26/5 143/102/5 144/103/5 134/27/5
f 71/57/4 61/44/4 206/44/4 216/57/4
f 135/48/5 25/104/5 26/105/5 136/17/5
f 120/70/1 119/97/1 264/97/1 265/70/1
f 2/18/2 25/18/2 171/18/2 148/18/2
f 72/58/2 73/60/2 218/60/2 217/58/2
f 23/18/3 24/18/3 147/18/3 170/18/3
f 58/36/3 68/55/3 213/55/3 203/36/3
f 119/97/4 109/96/4 254/96/4 264/97/4
f 22/18/3 23/18/3 170/18/3 169/18/3
f 67/54/4 57/34/4 202/34/4 212/54/4
f 277/103/5 149/106/5 150/107/5 180/108/5
f 153/31/5 189/30/5 151/109/5 152/110/5
f 189/30/5 199/51/5 188/111/5 151/109/5
f 199/51/5 209/40/5 187/112/5 188/111/5
f 209/40/5 219/41/5 186/113/5 187/112/5
f 219/41/5 229/83/5 185/114/5 186/113/5
f 229/83/5 239/82/5 184/115/5 185/114/5
f 239/82/5 249/93/5 183/116/5 184/115/5
f 249/93/5 259/101/5 182/117/5 183/116/5
f 259/101/5 267/27/5 181/118/5 182/117/5
f 267/27/5 277/103/5 180/108/5 181/118/5
f 146/18/5 162/119/5 190/3/5 145/120/5
f 145/120/5 190/3/5 191/4/5 161/121/5
f 161/121/5 191/4/5 192/35/5 160/122/5
f 160/122/5 192/35/5 193/37/5 159/123/5
f 159/123/5 193/37/5 194/39/5 158/124/5
f 158/124/5 194/39/5 195/42/5 157/125/5
f 157/125/5 195/42/5 196/45/5 156/126/5
f 156/126/5 196/45/5 197/47/5 155/127/5
f 155/127/5 197/47/5 198/29/5 154/28/5
f 162/119/5 163/128/5 200/32/5 190/3/5
f 194/39/5 204/38/5 205/43/5 195/42/5
f 197/47/5 207/46/5 208/50/5 198/29/5
f 163/128/5 164/129/5 210/52/5 200/32/5
f 201/33/5 211/53/5 212/54/5 202/34/5
f 203/36/5 213/55/5 214/66/5 204/38/5
f 204/38/5 214/66/5 215/68/5 205/43/5
f 205/43/5 215/68/5 216/57/5 206/44/5
f 207/46/5 217/58/5 218/60/5 208/50/5
f 164/129/5 165/130/5 220/25/5 210/52/5
f 211/53/5 221/20/5 222/63/5 212/54/5
f 213/55/5 223/64/5 224/67/5 214/66/5
f 165/130/5 166/131/5 230/24/5 220/25/5
f 221/20/5 231/21/5 232/22/5 222/63/5
f 222/63/5 232/22/5 233/23/5 223/64/5
f 223/64/5 233/23/5 234/19/5 224/67/5
f 224/67/5 234/19/5 235/12/5 225/13/5
f 226/5/5 236/6/5 237/7/5 227/65/5
f 227/65/5 237/7/5 238/8/5 228/59/5
f 228/59/5 238/8/5 229/83/5 219/41/5
f 166/131/5 167/132/5 240/73/5 230/24/5
f 233/23/5 243/76/5 244/77/5 234/19/5
f 236/6/5 246/79/5 247/80/5 237/7/5
f 167/132/5 168/133/5 250/85/5 240/73/5
f 241/74/5 251/86/5 252/87/5 242/75/5
f 243/76/5 253/88/5 254/96/5 244/77/5
f 244/77/5 254/96/5 255/89/5 245/78/5
f 246/79/5 256/90/5 257/100/5 247/80/5
f 247/80/5 257/100/5 258/92/5 248/81/5
f 168/133/5 169/134/5 260/94/5 250/85/5
f 251/86/5 261/95/5 262/91/5 252/87/5
f 253/88/5 263/84/5 264/97/5 254/96/5
f 169/134/5 170/135/5 268/49/5 260/94/5
f 260/94/5 268/49/5 269/71/5 261/95/5
f 261/95/5 269/71/5 270/72/5 262/91/5
f 263/84/5 271/69/5 272/61/5 264/97/5
f 264/97/5 272/61/5 273/62/5 265/70/5
f 266/56/5 276/26/5 267/27/5 259/101/5
f 170/135/5 147/136/5 278/48/5 268/49/5
f 274/14/5 284/15/5 285/9/5 275/10/5
f 147/136/5 148/137/5 171/104/5 278/48/5
f 279/17/5 172/105/5 173/138/5 280/16/5
f 280/16/5 173/138/5 174/139/5 281/11/5
f 281/11/5 174/139/5 175/140/5 282/2/5
f 282/2/5 175/140/5 176/141/5 283/1/5
f 283/1/5 176/141/5 177/142/5 284/15/5
f 284/15/5 177/142/5 178/143/5 285/9/5
f 285/9/5 178/143/5 179/144/5 286/102/5
f 286/102/5 179/144/5 149/106/5 277/103/5
f 93/8/2 94/83/2 229/83/2 238/8/2
f 46/4/2 47/35/2 192/35/2 191/4/2
f 141/15/1 140/1/1 283/1/1 284/15/1
f 134/27/3 144/103/3 277/103/3 267/27/3
f 47/35/2 48/37/2 193/37/2 192/35/2
f 25/104/4 135/48/4 278/48/4 171/104/4
f 48/37/2 49/39/2 194/39/2 193/37/2
f 143/102/1 142/9/1 285/9/1 286/102/1
f 136/17/3 26/105/3 172/105/3 279/17/3
f 95/73/4 85/24/4 230/24/4 240/73/4
f 144/103/1 143/102/1 286/102/1 277/103/1
f 97/75/1 96/74/1 241/74/1 242/75/1
f 50/42/2 51/45/2 196/45/2 195/42/2
f 14/18/1 1/18/1 146/18/1 145/18/1
f 51/45/2 52/47/2 197/47/2 196/45/2
f 24/18/3 2/18/3 148/18/3 147/18/3
f 88/23/3 98/76/3 243/76/3 233/23/3
f 34/18/2 4/18/2 150/18/2 149/18/2
f 100/78/1 99/77/1 244/77/1 245/78/1
f 99/77/4 89/19/4 234/19/4 244/77/4
f 44/18/4 3/18/4 152/18/4 151/18/4
f 3/18/1 5/18/1 153/18/1 152/18/1
f 91/6/3 101/79/3 246/79/3 236/6/3
f 103/81/1 102/80/1 247/80/1 248/81/1
f 102/80/4 92/7/4 237/7/4 247/80/4
f 6/18/1 7/18/1 155/18/1 154/18/1
f 57/34/1 56/33/1 201/33/1 202/34/1
f 7/18/1 8/18/1 156/18/1 155/18/1
f 94/83/3 104/82/3 239/82/3 229/83/3
f 53/29/4 6/28/4 154/28/4 198/29/4
f 8/18/1 9/18/1 157/18/1 156/18/1
f 105/85/4 95/73/4 240/73/4 250/85/4
f 59/38/1 58/36/1 203/36/1 204/38/1
f 5/31/3 54/30/3 189/30/3 153/31/3
f 9/18/1 10/18/1 158/18/1 157/18/1
f 96/74/3 106/86/3 251/86/3 241/74/3
f 55/32/4 45/3/4 190/3/4 200/32/4
f 10/18/1 11/18/1 159/18/1 158/18/1
f 107/87/4 97/75/4 242/75/4 252/87/4
f 61/44/1 60/43/1 205/43/1 206/44/1
f 11/18/1 12/18/1 160/18/1 159/18/1
f 98/76/3 108/88/3 253/88/3 243/76/3
f 12/18/1 13/18/1 161/18/1 160/18/1
f 13/18/1 14/18/1 145/18/1 161/18/1
f 109/96/2 110/89/2 255/89/2 254/96/2
f 110/89/4 100/78/4 245/78/4 255/89/4
f 49/39/3 59/38/3 204/38/3 194/39/3
f 1/18/3 15/18/3 162/18/3 146/18/3
f 101/79/3 111/90/3 256/90/3 246/79/3
f 60/43/4 50/42/4 195/42/4 205/43/4
f 15/18/3 16/18/3 163/18/3 162/18/3
f 111/90/2 112/100/2 257/100/2 256/90/2
f 16/18/3 17/18/3 164/18/3 163/18/3
f 112/100/2 113/92/2 258/92/2 257/100/2
f 113/92/4 103/81/4 248/81/4 258/92/4
f 52/47/3 62/46/3 207/46/3 197/47/3
f 17/18/3 18/18/3 165/18/3 164/18/3
f 104/82/3 114/93/3 249/93/3 239/82/3
f 63/50/4 53/29/4 198/29/4 208/50/4
f 18/18/3 19/18/3 166/18/3 165/18/3
f 115/94/4 105/85/4 250/85/4 260/94/4
f 54/30/3 64/51/3 199/51/3 189/30/3
f 19/18/3 20/18/3 167/18/3 166/18/3
f 106/86/3 116/95/3 261/95/3 251/86/3
f 65/52/4 55/32/4 200/32/4 210/52/4
f 20/18/3 21/18/3 168/18/3 167/18/3
f 116/95/1 115/94/1 260/94/1 261/95/1
f 117/91/4 107/87/4 252/87/4 262/91/4
f 69/66/2 70/68/2 215/68/2 214/66/2
f 56/33/3 66/53/3 211/53/3 201/33/3
f 21/18/3 22/18/3 169/18/3 168/18/3
f 108/88/3 118/84/3 263/84/3 253/88/3
f 70/68/2 71/57/2 216/57/2 215/68/2
